# xmcd
# Track frame offsets:
# 150
# 19608
# 32201
#
# Disc length: 932 seconds
# Revision: 0
# Processed by: cddbd v1.5.1PL2 Copyright (c) Steve Scherf et al.
# Submitted via: VisiTrax 2.9.10.220 - For more info visit www.synapsa.com
#
DISCID=1a03a203
DTITLE=Eugenio finardi - Estrellita
DYEAR=2005
DGENRE=
TTITLE0=Estrellita
TTITLE1=Barnyard mama
TTITLE2=Lil' red Rooster
EXTD=
EXTT0=
EXTT1=
EXTT2=
PLAYORDER=
